<svg xmlns="http://www.w3.org/2000/svg" aria-hidden="true" style="position:absolute;width:0;height:0;overflow:hidden">
  <defs>
    <symbol id="icon-logo" viewBox="0 0 28 32">
      <path d="M.235 27.346a.706.706 0 1 0 1.412 0H.235zM1.908 1.908zm25.148-.677zm-.416 22.342a.706.706 0 1 0 1.412 0H26.64zm-22.398-.234a.706.706 0 1 0 0 1.412v-1.412zm23.104 1.412a.706.706 0 1 0 0-1.412v1.412zM4.242 29.94a.706.706 0 1 0 0 1.412V29.94zm23.104 1.412a.706.706 0 1 0 0-1.412v1.412zM1.647 27.346V4.242H.235v23.104h1.412zm0-23.104c0-.688.273-1.348.76-1.835l-.998-.998A4.006 4.006 0 0 0 .236 4.242h1.412zm.76-1.835a2.595 2.595 0 0 1 1.835-.76V.235a4.006 4.006 0 0 0-2.833 1.173l.998.998zm1.835-.76h22.114V.235H4.242v1.412zm22.113 0c.075 0 .148.03.201.083l.998-.998a1.695 1.695 0 0 0-1.199-.497v1.412zm.202.083a.285.285 0 0 1 .083.201h1.412c0-.45-.179-.881-.497-1.199l-.998.998zm.083.201v21.642h1.412V1.931H26.64zM4.242 24.751h23.104v-1.412H4.242v1.412zm0 6.601h23.104V29.94H4.242v1.412z"/>
      <path stroke-linecap="round" stroke-linejoin="round" stroke-width="1.412" d="M4.242 30.646a3.302 3.302 0 0 1 0-6.602"/>
      <path stroke-linecap="round" stroke-width="1.412" d="M9.193 7.542h9.902"/>
    </symbol>
    <symbol id="icon-moon" viewBox="0 0 32 32">
      <path stroke-linecap="round" stroke-linejoin="round" stroke-width="2.182" d="M1.455 15.199a15.34 15.34 0 0 0 11.837 14.943 15.332 15.332 0 0 0 17.244-8.126c-13.744 0-20.56-6.818-20.56-20.56A15.33 15.33 0 0 0 1.455 15.2z"/>
    </symbol>
    <symbol id="icon-search" viewBox="0 0 32 32">
      <path d="M23.454 21.569a1.333 1.333 0 1 0-1.886 1.886l1.886-1.886zm5.026 8.797a1.333 1.333 0 1 0 1.886-1.886l-1.886 1.886zM5.248 22.003zm3.844 2.569zm9.067 0zm3.844-2.569zm2.569-3.844zM22.003 5.248zm-.434 18.206 6.911 6.911 1.886-1.886-6.911-6.911-1.886 1.886zM.444 13.626c0 1.731.341 3.445 1.003 5.044l2.464-1.02a10.523 10.523 0 0 1-.8-4.024H.444zm1.004 5.044a13.175 13.175 0 0 0 2.857 4.276l1.886-1.886a10.505 10.505 0 0 1-2.279-3.411l-2.464 1.02zm2.857 4.276a13.175 13.175 0 0 0 4.276 2.857l1.021-2.464a10.521 10.521 0 0 1-3.411-2.279l-1.886 1.886zm4.276 2.857a13.187 13.187 0 0 0 5.044 1.003v-2.667c-1.381 0-2.748-.272-4.024-.8l-1.02 2.464zm5.045 1.004c1.731 0 3.445-.341 5.044-1.003l-1.02-2.464c-1.276.528-2.643.8-4.024.8v2.667zm5.044-1.004a13.177 13.177 0 0 0 4.276-2.858L21.06 21.06a10.505 10.505 0 0 1-3.411 2.279l1.021 2.464zm4.276-2.857a13.193 13.193 0 0 0 2.858-4.276l-2.464-1.021a10.521 10.521 0 0 1-2.279 3.411l1.885 1.886zm2.857-4.276a13.187 13.187 0 0 0 1.003-5.044h-2.667c0 1.381-.272 2.748-.8 4.024l2.464 1.02zm1.004-5.044a13.18 13.18 0 0 0-3.861-9.32L21.06 6.192a10.514 10.514 0 0 1 3.08 7.435h2.667zm-3.861-9.321a13.182 13.182 0 0 0-9.32-3.861v2.667c2.789 0 5.463 1.108 7.435 3.08l1.886-1.886zM13.626.444a13.18 13.18 0 0 0-9.32 3.861l1.886 1.886a10.514 10.514 0 0 1 7.435-3.08V.444zM4.305 4.305a13.182 13.182 0 0 0-3.861 9.32h2.667c0-2.789 1.108-5.463 3.08-7.435L4.305 4.304z"/>
    </symbol>
  
  </defs>
</svg>