<?xml version="1.0" standalone="no"?>
<!DOCTYPE svg PUBLIC "-//W3C//DTD SVG 20010904//EN"
 "http://www.w3.org/TR/2001/REC-SVG-20010904/DTD/svg10.dtd">
<svg version="1.0" xmlns="http://www.w3.org/2000/svg"
 width="608.000000pt" height="608.000000pt" viewBox="0 0 608.000000 608.000000"
 preserveAspectRatio="xMidYMid meet">
<metadata>
Created by potrace 1.14, written by Peter Selinger 2001-2017
</metadata>
<g transform="translate(0.000000,608.000000) scale(0.100000,-0.100000)"
fill="#000000" stroke="none">
<path d="M1127 6044 c-1 -1 -31 -4 -67 -8 -160 -14 -291 -66 -414 -162 -153
-120 -264 -327 -281 -521 -6 -60 -9 -271 -5 -288 1 -5 1 -14 0 -20 -2 -12 -2
-128 1 -141 1 -5 1 -12 0 -16 -2 -11 -3 -462 -1 -473 2 -6 2 -14 1 -20 -3 -14
-3 -278 -1 -290 1 -6 1 -14 0 -20 -2 -12 -2 -128 1 -141 1 -5 1 -11 0 -14 -3
-8 -3 -774 -1 -785 1 -5 1 -14 0 -20 -2 -12 -2 -128 1 -141 1 -5 1 -12 0 -16
-2 -11 -3 -462 -1 -473 2 -6 2 -14 1 -20 -3 -14 -3 -278 -1 -290 1 -6 1 -14 0
-20 -2 -12 -2 -128 1 -141 1 -5 1 -11 0 -14 -3 -8 -3 -774 -1 -785 1 -5 1 -14
0 -20 -2 -12 -2 -128 1 -141 1 -5 1 -13 0 -19 -4 -25 -1 -276 4 -325 12 -118
60 -250 126 -347 53 -79 168 -184 253 -232 90 -51 202 -87 302 -96 58 -5 459
-9 474 -4 3 1 9 1 15 -1 11 -2 462 -1 473 1 4 1 11 1 16 0 13 -3 129 -3 141
-1 6 1 15 1 20 0 11 -2 777 -2 785 1 3 1 9 1 14 0 13 -3 129 -3 141 -1 6 1 14
1 20 0 12 -2 276 -2 290 1 6 1 14 1 19 0 12 -3 288 -3 301 0 6 1 14 0 20 -1
20 -4 1737 -1 1741 3 2 2 21 1 42 -3 52 -8 98 8 133 47 57 66 22 171 -65 189
-19 4 -1846 7 -1871 3 -5 -1 -14 -1 -19 0 -13 3 -129 3 -141 1 -5 -1 -14 -2
-19 -1 -13 3 -129 3 -141 1 -5 -1 -14 -2 -19 -1 -13 3 -129 3 -141 1 -5 -1
-14 -1 -20 0 -11 2 -1417 1 -1425 -1 -3 -1 -9 -1 -14 0 -13 3 -129 3 -141 1
-5 -1 -14 -2 -19 -1 -13 3 -129 3 -141 1 -5 -1 -14 -2 -19 -1 -13 3 -129 3
-141 1 -5 -1 -14 -1 -20 0 -5 1 -66 2 -135 2 -211 -2 -332 38 -440 146 -100
100 -148 207 -155 341 -9 161 49 307 160 408 108 99 217 139 380 141 50 1 92
2 95 3 3 1 9 1 13 0 13 -2 210 -3 222 0 6 1 14 1 18 0 11 -2 529 -2 542 0 6 1
14 1 19 0 4 -1 31 -1 60 -1 28 0 58 1 66 1 8 0 49 0 90 -1 41 -1 80 -1 85 1 6
1 14 1 18 0 11 -2 529 -2 542 0 6 1 14 1 18 0 13 -2 210 -3 222 0 6 1 14 1 18
0 13 -2 210 -3 222 0 6 1 14 1 18 0 11 -2 529 -2 542 0 6 1 14 1 19 0 4 -1 31
-1 60 -1 28 0 58 1 66 1 8 0 49 0 90 -1 41 -1 80 -1 85 1 6 1 14 1 18 0 11 -2
529 -2 542 0 6 1 14 1 18 0 13 -2 210 -3 222 0 6 1 14 1 18 0 13 -2 210 -3
222 0 6 1 15 0 20 -1 18 -3 271 0 292 4 67 13 94 62 90 164 -2 40 -1 75 1 77
6 6 3 4188 -3 4213 -3 12 -7 31 -10 43 -7 36 -51 102 -90 137 -38 35 -138 85
-149 75 -3 -3 -12 -1 -19 5 -8 7 -17 9 -20 6 -3 -4 -28 -6 -54 -5 -62 2 -4244
6 -4246 5z m646 -245 c34 0 67 0 72 1 6 1 15 1 20 0 11 -2 777 -2 785 1 3 1 9
1 14 0 13 -3 129 -3 141 -1 6 1 15 1 20 0 11 -2 777 -2 785 1 3 1 9 1 14 0 13
-3 129 -3 141 -1 6 1 15 1 20 0 11 -2 777 -2 785 1 3 1 9 1 14 0 13 -3 129 -3
141 -1 6 1 15 1 20 0 6 -1 162 -2 348 -1 l338 1 24 -24 23 -24 0 -2095 0
-2095 -539 1 c-296 1 -539 -1 -539 -5 0 -4 -6 -5 -14 -2 -22 8 -146 10 -146 2
0 -4 -6 -5 -14 -2 -22 8 -146 10 -146 2 0 -4 -6 -5 -14 -2 -21 8 -146 10 -146
2 0 -3 -8 -4 -19 -1 -30 8 -1421 9 -1421 1 0 -4 -6 -5 -14 -2 -22 8 -146 10
-146 2 0 -4 -6 -5 -14 -2 -22 8 -146 10 -146 2 0 -4 -6 -5 -14 -2 -23 9 -146
10 -146 1 0 -5 -5 -5 -10 -2 -13 8 -887 8 -950 0 -169 -21 -274 -67 -427 -187
-9 -7 -12 99 -12 461 1 259 -2 475 -6 481 -3 5 -3 10 2 10 9 0 8 123 -1 146
-3 8 -2 14 2 14 8 0 6 124 -2 146 -3 8 -2 14 2 14 8 0 6 124 -2 146 -3 8 -2
14 2 14 8 0 7 1391 -1 1421 -3 11 -2 19 1 19 8 0 6 125 -2 146 -3 8 -2 14 2
14 8 0 6 124 -2 146 -3 8 -2 14 2 14 8 0 6 124 -2 146 -3 8 -2 14 2 14 4 0 7
150 7 333 1 293 3 338 18 382 49 137 142 246 259 306 103 52 152 58 491 58
170 -1 311 2 314 5 3 3 10 3 14 0 5 -3 37 -5 72 -5z"/>
<path d="M2095 4762 c-59 -4 -100 -27 -119 -66 -20 -43 -20 -69 0 -111 25 -54
65 -66 215 -68 71 -1 129 1 129 5 0 4 6 5 14 2 23 -9 146 -10 146 -1 0 5 5 5
10 2 13 -8 275 -9 288 -1 6 3 13 0 15 -6 4 -10 6 -10 6 0 1 7 6 10 11 7 13 -8
596 -9 609 -1 5 4 12 0 14 -6 4 -10 6 -10 6 0 1 7 6 10 11 7 6 -4 138 -7 293
-6 236 0 287 2 313 16 33 16 64 67 64 105 0 31 -26 83 -50 97 -28 18 -99 33
-106 22 -3 -5 -9 -7 -14 -4 -7 4 -1472 8 -1505 4 -5 -1 -14 -1 -18 0 -24 4
-219 3 -223 -2 -3 -2 -19 -2 -37 2 -18 3 -50 5 -72 3z"/>
</g>
</svg>
